<?xml version="1.0" encoding="UTF-8"?>
<!DOCTYPE svg PUBLIC "-//W3C//DTD SVG 1.1//EN" "http://www.w3.org/Graphics/SVG/1.1/DTD/svg11.dtd">
<svg xmlns="http://www.w3.org/2000/svg" version="1.1" width="271px" height="250px" style="shape-rendering:geometricPrecision; text-rendering:geometricPrecision; image-rendering:optimizeQuality; fill-rule:evenodd; clip-rule:evenodd" xmlns:xlink="http://www.w3.org/1999/xlink">
<g><path style="opacity:0.941" fill="#fefffe" d="M 127.5,2.5 C 177.605,3.51653 215.105,25.5165 240,68.5C 243.22,74.9413 245.887,81.6079 248,88.5C 251.79,89.1363 255.623,89.803 259.5,90.5C 256.406,94.2523 253.739,98.2523 251.5,102.5C 256.759,131.692 252.425,159.358 238.5,185.5C 245.308,194.809 252.308,203.976 259.5,213C 245.167,213.333 230.833,213.667 216.5,214C 183.599,243.847 145.266,254.18 101.5,245C 58.1961,233.03 29.0294,205.863 14,163.5C 10.8708,162.87 7.70415,162.204 4.5,161.5C 6.64036,158.193 8.9737,155.026 11.5,152C 4.93351,121.866 8.93351,93.1993 23.5,66C 17.0412,56.704 10.3746,47.5373 3.5,38.5C 17.4881,37.6672 31.4881,37.1672 45.5,37C 68.7108,15.6534 96.0441,4.15337 127.5,2.5 Z M 123.5,11.5 C 169.304,10.6461 204.471,29.3128 229,67.5C 233.011,74.5163 236.178,81.8497 238.5,89.5C 231.825,89.3337 225.158,89.5004 218.5,90C 202.591,110.487 186.924,131.154 171.5,152C 184.955,169.744 198.288,187.577 211.5,205.5C 180.813,235.222 144.479,245.388 102.5,236C 64.1841,224.849 37.8507,200.683 23.5,163.5C 30.8108,162.669 38.1441,162.169 45.5,162C 60.8477,141.323 76.181,120.656 91.5,100C 78.0398,81.7026 64.3732,63.5359 50.5,45.5C 70.864,25.7089 95.1974,14.3756 123.5,11.5 Z M 29.5,73.5 C 36.7017,81.8766 43.3684,90.71 49.5,100C 39.7339,114.104 29.5672,127.937 19,141.5C 15.2369,117.743 18.7369,95.0767 29.5,73.5 Z M 243.5,111.5 C 246.819,134.249 243.153,155.916 232.5,176.5C 226.006,168.5 219.673,160.334 213.5,152C 223.717,138.622 233.717,125.122 243.5,111.5 Z"/></g>
<g><path style="opacity:0.955" fill="#fefffe" d="M 69.5,47.5 C 81.1857,47.1678 92.8523,47.5011 104.5,48.5C 116.808,65.3081 129.308,81.9748 142,98.5C 142.52,100.289 142.187,101.956 141,103.5C 128.833,119.667 116.667,135.833 104.5,152C 92.8191,152.833 81.1524,152.666 69.5,151.5C 82.1667,134.5 94.8333,117.5 107.5,100.5C 95.5259,84.0255 83.3593,67.6922 71,51.5C 70.2086,50.255 69.7086,48.9217 69.5,47.5 Z"/></g>
<g><path style="opacity:0.962" fill="#fefffe" d="M 158.5,99.5 C 170.505,99.3335 182.505,99.5001 194.5,100C 181.257,117.154 168.257,134.488 155.5,152C 168.167,169 180.833,186 193.5,203C 181.833,203.667 170.167,203.667 158.5,203C 146,186.5 133.5,170 121,153.5C 120.582,151.212 121.249,149.212 123,147.5C 135.096,131.619 146.929,115.619 158.5,99.5 Z"/></g>
</svg>
